<?xml version="1.0" encoding="UTF-8" standalone="no"?>
<svg width="23px" height="17px" viewBox="0 0 23 17" version="1.1" xmlns="http://www.w3.org/2000/svg" xmlns:xlink="http://www.w3.org/1999/xlink">
    <!-- Generator: Sketch 3.7.2 (28276) - http://www.bohemiancoding.com/sketch -->
    <title>CAS</title>
    <desc>Created with Sketch.</desc>
    <defs>
        <linearGradient x1="50%" y1="0%" x2="50%" y2="100%" id="linearGradient-1">
            <stop stop-color="#FFFFFF" offset="0%"></stop>
            <stop stop-color="#F0F0F0" offset="100%"></stop>
        </linearGradient>
        <rect id="path-2" x="0" y="0" width="21" height="15" rx="1.5"></rect>
        <filter x="-50%" y="-50%" width="200%" height="200%" filterUnits="objectBoundingBox" id="filter-4">
            <feOffset dx="0" dy="0.5" in="SourceAlpha" result="shadowOffsetOuter1"></feOffset>
            <feGaussianBlur stdDeviation="0.5" in="shadowOffsetOuter1" result="shadowBlurOuter1"></feGaussianBlur>
            <feColorMatrix values="0 0 0 0 0   0 0 0 0 0   0 0 0 0 0  0 0 0 0.16 0" type="matrix" in="shadowBlurOuter1"></feColorMatrix>
        </filter>
        <linearGradient x1="50%" y1="0%" x2="50%" y2="100%" id="linearGradient-5">
            <stop stop-color="#19BFBF" offset="0%"></stop>
            <stop stop-color="#10ACAC" offset="100%"></stop>
        </linearGradient>
        <path d="M4.22942543,6.61471268 C4.10271726,6.5513586 4.04614258,6.40771481 4.11596679,6.26806637 L4.3840332,5.73193356 C4.4480799,5.60384018 4.4671936,5.40158078 4.421875,5.26562498 L4.078125,4.234375 C4.03497775,4.10493326 4.09228516,4.04614258 4.2319336,4.11596679 L4.76806642,4.38403319 C4.8961598,4.44807988 5.1075287,4.47311782 5.24523927,4.43869017 L6.75476074,4.06130981 C6.89020264,4.02744934 7.10752868,3.97311783 7.24523926,3.93869019 L8.75476074,3.56130982 C8.89020264,3.52744934 9.08064651,3.41935349 9.17206907,3.32793093 L10.3279309,2.17206907 C10.422962,2.07703795 10.6074219,2 10.7488494,2 L12.7511506,2 C12.8885863,2 13,2.10701752 13,2.25234222 L13,2.74765778 C13,2.88702254 12.921875,3.078125 12.8194885,3.18051148 L12.6805115,3.31948853 C12.5808177,3.41918226 12.6148753,3.51044321 12.7506154,3.52278322 L17.7493846,3.97721678 C17.8877957,3.98979961 17.9538574,4.09228516 17.8840332,4.23193359 L17.6159668,4.76806641 C17.5519201,4.89615979 17.3822975,5 17.2523055,5 L16.2476945,5 C16.1108966,5 15.9215317,5.07846832 15.8258133,5.17418671 L15.1741867,5.82581329 C15.077986,5.92201396 15.0984192,6.0328064 15.234375,6.078125 L16.265625,6.421875 C16.3950667,6.46502225 16.5461426,6.59228516 16.6159668,6.73193359 L16.8840332,7.26806641 C16.9480799,7.39615979 16.9077148,7.54614258 16.7680664,7.6159668 L16.2319336,7.8840332 C16.1038402,7.9480799 16.0461426,8.09228516 16.1159668,8.23193359 L16.3840332,8.76806641 C16.4480799,8.89615979 16.3840332,9 16.25,9 C16.1119288,9 15.9538574,8.90771484 15.8840332,8.7680664 L15.6159668,8.23193357 C15.5519201,8.10384017 15.4215317,8.07846829 15.3258133,8.17418667 L14.6741867,8.82581326 C14.577986,8.92201392 14.578125,9.07812496 14.6805115,9.18051144 L14.8194885,9.31948849 C14.9191823,9.41918222 15,9.60701748 15,9.75234219 L15,10.2476577 C15,10.3870225 14.9077148,10.5461425 14.7680664,10.6159668 L14.2319336,10.8840332 C14.1038402,10.9480799 13.8929825,11 13.7476578,11 L13.2523422,11 C13.1129775,11 12.921875,11.078125 12.8194885,11.1805114 L12.6805115,11.3194885 C12.5808177,11.4191822 12.578125,11.578125 12.6805115,11.6805114 L12.8194885,11.8194885 C12.9191823,11.9191822 13,12.1070175 13,12.2523423 L13,12.7476581 C13,12.8870229 12.9077148,12.9538579 12.7680664,12.8840336 L12.2319336,12.6159672 C12.1038402,12.5519205 11.9215317,12.4215321 11.8258133,12.3258137 L11.1741867,11.6741868 C11.077986,11.577986 10.9538574,11.4077148 10.8840332,11.2680664 L10.6159668,10.7319336 C10.5519201,10.6038402 10.4570312,10.6074219 10.4077148,10.7307129 L9.59228515,12.7692875 C9.54131747,12.8967067 9.3840332,13.0000004 9.25,13.0000004 C9.11192881,13.0000004 8.9343872,12.9015812 8.86095428,12.7914318 L8.13904571,11.7085686 C8.06225288,11.5933793 8,11.3929824 8,11.2476577 L8,10.7523422 C8,10.6129774 7.89247131,10.4731178 7.75476074,10.4386901 L6.24523926,10.0613098 C6.10979735,10.0274493 6,10.1159668 6,10.25 C6,10.3880712 6.09228515,10.5461425 6.23193359,10.6159668 L6.7680664,10.8840332 C6.89615979,10.9480799 6.921875,11.0781249 6.81948852,11.1805113 L6.68051147,11.3194882 C6.58081774,11.4191819 6.42153168,11.5784679 6.32581329,11.6741863 L5.6741867,12.3258132 C5.57798604,12.4220139 5.40771484,12.4538574 5.2680664,12.3840332 L4.73193359,12.1159668 C4.60384021,12.0519201 4.4671936,11.9015808 4.421875,11.765625 L4.078125,10.734375 C4.03497775,10.6049332 4,10.3840332 4,10.25 C4,10.1119288 4.078125,9.92187497 4.18051147,9.8194885 L4.31948852,9.68051146 C4.41918226,9.58081773 4.40158081,9.4671936 4.265625,9.421875 L3.234375,9.078125 C3.10493326,9.03497775 3,8.89298249 3,8.74765779 L3,8.25234225 C3,8.1129775 3.11770249,8.00000003 3.24769449,8.00000003 L4.25230551,8.00000001 C4.3891034,8 4.59228516,8.04614258 4.73193361,8.11596679 L5.26806645,8.38403318 C5.39615984,8.44807986 5.54614264,8.40771481 5.61596685,8.26806637 L5.88403326,7.73193356 C5.94807995,7.60384017 5.89247137,7.44623562 5.77057462,7.38528725 L4.22942543,6.61471268 Z M10.5,13 C10.7761424,13 11,12.7761424 11,12.5 C11,12.2238576 10.7761424,12 10.5,12 C10.2238576,12 10,12.2238576 10,12.5 C10,12.7761424 10.2238576,13 10.5,13 Z M7.5,8 C7.77614237,8 8,7.77614237 8,7.5 C8,7.22385763 7.77614237,7 7.5,7 C7.22385763,7 7,7.22385763 7,7.5 C7,7.77614237 7.22385763,8 7.5,8 Z M17,10 L17,9.25234222 C17,9.11297746 17.1070175,9 17.2523422,9 L17.7476578,9 C17.8870225,9 17.9077148,9.04614258 17.7680664,9.1159668 L17,9.5 L17.5,10 L17.1159668,10.7680664 C17.0519201,10.8961598 16.8929825,11 16.7476578,11 L16.2523422,11 C16.1129775,11 16.0784683,10.9215317 16.1741867,10.8258133 L17,10 Z" id="path-6"></path>
        <filter x="-50%" y="-50%" width="200%" height="200%" filterUnits="objectBoundingBox" id="filter-7">
            <feOffset dx="0" dy="0.5" in="SourceAlpha" result="shadowOffsetOuter1"></feOffset>
            <feColorMatrix values="0 0 0 0 0   0 0 0 0 0   0 0 0 0 0  0 0 0 0.06 0" type="matrix" in="shadowOffsetOuter1"></feColorMatrix>
        </filter>
    </defs>
    <g id="Flag-Kit" stroke="none" stroke-width="1" fill="none" fill-rule="evenodd">
        <g id="CAS">
            <g id="BE-Copy-9" transform="translate(1.000000, 1.000000)">
                <mask id="mask-3" fill="white">
                    <use xlink:href="#path-2"></use>
                </mask>
                <g id="Mask">
                    <use fill="black" fill-opacity="1" filter="url(#filter-4)" xlink:href="#path-2"></use>
                    <use fill="url(#linearGradient-1)" fill-rule="evenodd" xlink:href="#path-2"></use>
                </g>
                <rect id="Mask-Copy" fill="url(#linearGradient-5)" mask="url(#mask-3)" x="0" y="0" width="21" height="15"></rect>
                <g id="Rectangle-1078" mask="url(#mask-3)">
                    <use fill="black" fill-opacity="1" filter="url(#filter-7)" xlink:href="#path-6"></use>
                    <use fill="url(#linearGradient-1)" fill-rule="evenodd" xlink:href="#path-6"></use>
                </g>
                <rect id="Depth" mask="url(#mask-3)" x="0" y="0" width="21" height="15" rx="1.5"></rect>
            </g>
        </g>
    </g>
</svg>