<?xml version="1.0" encoding="UTF-8" standalone="no"?>
<svg width="23px" height="17px" viewBox="0 0 23 17" version="1.1" xmlns="http://www.w3.org/2000/svg" xmlns:xlink="http://www.w3.org/1999/xlink">
    <!-- Generator: Sketch 3.7.2 (28276) - http://www.bohemiancoding.com/sketch -->
    <title>CNA</title>
    <desc>Created with Sketch.</desc>
    <defs>
        <linearGradient x1="50%" y1="0%" x2="50%" y2="100%" id="linearGradient-1">
            <stop stop-color="#FFFFFF" offset="0%"></stop>
            <stop stop-color="#F0F0F0" offset="100%"></stop>
        </linearGradient>
        <rect id="path-2" x="0" y="0" width="21" height="15" rx="1.5"></rect>
        <filter x="-50%" y="-50%" width="200%" height="200%" filterUnits="objectBoundingBox" id="filter-4">
            <feOffset dx="0" dy="0.5" in="SourceAlpha" result="shadowOffsetOuter1"></feOffset>
            <feGaussianBlur stdDeviation="0.5" in="shadowOffsetOuter1" result="shadowBlurOuter1"></feGaussianBlur>
            <feColorMatrix values="0 0 0 0 0   0 0 0 0 0   0 0 0 0 0  0 0 0 0.16 0" type="matrix" in="shadowBlurOuter1"></feColorMatrix>
        </filter>
        <linearGradient x1="50%" y1="0%" x2="50%" y2="100%" id="linearGradient-5">
            <stop stop-color="#19BFBF" offset="0%"></stop>
            <stop stop-color="#10ACAC" offset="100%"></stop>
        </linearGradient>
        <path d="M11.1159668,12.2319336 C11.0519201,12.1038402 10.9538574,11.9077148 10.8840332,11.7680664 L10.6159668,11.2319336 C10.5519201,11.1038402 10.3840332,11 10.25,11 L10.25,11 C10.1119288,11 9.9140625,10.9140625 9.82948112,10.8294811 L8.17051888,9.17051887 C8.0763439,9.07634389 8,8.89298248 8,8.74765777 L8,8.25234222 C8,8.11297745 7.92153168,7.92153167 7.82581329,7.82581329 L7.17418671,7.1741867 C7.07798604,7.07798604 6.97311783,6.89247131 6.93869019,6.75476073 L6.56130981,5.24523925 C6.52744934,5.10979735 6.40158081,4.9671936 6.265625,4.92187499 L5.234375,4.57812499 C5.10493326,4.53497775 4.90771484,4.45385741 4.76806641,4.3840332 L4.23193359,4.11596679 C4.10384021,4.0519201 4,3.89298248 4,3.74765777 L4,3.25234222 C4,3.11297745 4.10701752,2.99999999 4.25234222,2.99999999 L4.74765778,2.99999999 C4.88702254,2.99999999 5.078125,3.07812499 5.18051147,3.18051147 L5.31948853,3.31948852 C5.41918226,3.41918225 5.60701752,3.49999999 5.75234222,3.49999999 L6.24765778,3.49999999 C6.38702254,3.49999999 6.578125,3.42187499 6.68051147,3.31948852 L6.81948853,3.18051147 C6.91918226,3.08081773 7.10752869,2.99999999 7.24523926,2.99999999 L8.75476074,2.99999999 C8.89020264,2.99999999 9.09228516,3.04614257 9.23193359,3.11596679 L9.76806641,3.3840332 C9.89615979,3.44807989 10.1070175,3.49999999 10.2523422,3.49999999 L10.7476578,3.49999999 C10.8870225,3.49999999 11.0922852,3.45385741 11.2319336,3.3840332 L11.7680664,3.11596679 C11.8961598,3.0519201 12.1075287,2.99999999 12.2452393,2.99999999 L13.7547607,2.99999999 C13.8902026,2.99999999 14,3.10701751 14,3.25234222 L14,3.74765777 C14,3.88702253 13.8929825,3.99999999 13.7476578,3.99999999 L13.2523422,4 C13.1129775,4 13,4.11770248 13,4.24769449 L13,5.25230551 C13,5.3891034 13.0922852,5.54614258 13.2319336,5.6159668 L13.7680664,5.8840332 C13.8961598,5.9480799 14,5.88229752 14,5.75230551 L14,4.74769449 C14,4.6108966 14.1177025,4.5 14.2476945,4.5 L15.2523055,4.5 C15.3891034,4.5 15.5,4.6159668 15.5,4.75 L15.5,4.75 C15.5,4.88807119 15.6177025,5 15.7476945,5 L16.7523055,5 C16.8891034,5 17,5.10701752 17,5.25234222 L17,5.74765778 C17,5.88702254 16.9671936,6.09841919 16.921875,6.234375 L16.578125,7.26562499 C16.5349778,7.39506673 16.4193535,7.58064651 16.3279309,7.67206907 L15.1720691,8.82793093 C15.0770379,8.92296205 14.9538574,9.09228516 14.8840332,9.23193359 L14.6159668,9.7680664 C14.5519201,9.89615979 14.5,10.1070175 14.5,10.2523422 L14.5,10.7476578 C14.5,10.8870225 14.3840332,11 14.25,11 L14.25,11 C14.1119288,11 13.9538574,10.9077148 13.8840332,10.7680664 L13.6159668,10.2319336 C13.5519201,10.1038402 13.3822975,10 13.2523055,10 L12.2476945,10 C12.1108966,10 11.9538574,10.0922852 11.8840332,10.2319336 L11.6159668,10.7680664 C11.5519201,10.8961598 11.5461426,11.0922851 11.6159668,11.2319336 L11.8840332,11.7680664 C11.9480799,11.8961598 12.1070175,12 12.2523422,12 L12.7476578,12 C12.8870225,12 13.0784683,12.0784683 13.1741867,12.1741867 L13.8258133,12.8258133 C13.922014,12.9220139 14,13.1070175 14,13.2523422 L14,13.7476578 C14,13.8870225 13.8929825,14 13.7476578,14 L13.2523422,14 C13.1129775,14 12.9538574,13.9077148 12.8840332,13.7680664 L12.6159668,13.2319336 C12.5519201,13.1038402 12.3929825,13 12.2476578,13 L11.7523422,13 C11.6129775,13 11.4538574,12.9077148 11.3840332,12.7680664 L11.1159668,12.2319336 Z" id="path-6"></path>
        <filter x="-50%" y="-50%" width="200%" height="200%" filterUnits="objectBoundingBox" id="filter-7">
            <feOffset dx="0" dy="0.5" in="SourceAlpha" result="shadowOffsetOuter1"></feOffset>
            <feColorMatrix values="0 0 0 0 0   0 0 0 0 0   0 0 0 0 0  0 0 0 0.06 0" type="matrix" in="shadowOffsetOuter1"></feColorMatrix>
        </filter>
    </defs>
    <g id="Flag-Kit" stroke="none" stroke-width="1" fill="none" fill-rule="evenodd">
        <g id="CNA">
            <g id="BE-Copy-9" transform="translate(1.000000, 1.000000)">
                <mask id="mask-3" fill="white">
                    <use xlink:href="#path-2"></use>
                </mask>
                <g id="Mask">
                    <use fill="black" fill-opacity="1" filter="url(#filter-4)" xlink:href="#path-2"></use>
                    <use fill="url(#linearGradient-1)" fill-rule="evenodd" xlink:href="#path-2"></use>
                </g>
                <rect id="Mask-Copy" fill="url(#linearGradient-5)" mask="url(#mask-3)" x="0" y="0" width="21" height="15"></rect>
                <rect id="Depth" mask="url(#mask-3)" x="0" y="0" width="21" height="15" rx="1.5"></rect>
            </g>
            <g id="Rectangle-1064">
                <use fill="black" fill-opacity="1" filter="url(#filter-7)" xlink:href="#path-6"></use>
                <use fill="url(#linearGradient-1)" fill-rule="evenodd" xlink:href="#path-6"></use>
            </g>
        </g>
    </g>
</svg>