<?xml version="1.0" encoding="UTF-8" standalone="no"?>
<svg width="23px" height="17px" viewBox="0 0 23 17" version="1.1" xmlns="http://www.w3.org/2000/svg" xmlns:xlink="http://www.w3.org/1999/xlink">
    <!-- Generator: Sketch 3.7.2 (28276) - http://www.bohemiancoding.com/sketch -->
    <title>EU</title>
    <desc>Created with Sketch.</desc>
    <defs>
        <linearGradient x1="50%" y1="0%" x2="50%" y2="100%" id="linearGradient-1">
            <stop stop-color="#FFFFFF" offset="0%"></stop>
            <stop stop-color="#F0F0F0" offset="100%"></stop>
        </linearGradient>
        <rect id="path-2" x="0" y="0" width="21" height="15" rx="1.5"></rect>
        <filter x="-50%" y="-50%" width="200%" height="200%" filterUnits="objectBoundingBox" id="filter-4">
            <feOffset dx="0" dy="0.5" in="SourceAlpha" result="shadowOffsetOuter1"></feOffset>
            <feGaussianBlur stdDeviation="0.5" in="shadowOffsetOuter1" result="shadowBlurOuter1"></feGaussianBlur>
            <feColorMatrix values="0 0 0 0 0   0 0 0 0 0   0 0 0 0 0  0 0 0 0.16 0" type="matrix" in="shadowBlurOuter1"></feColorMatrix>
        </filter>
        <linearGradient x1="50%" y1="0%" x2="50%" y2="100%" id="linearGradient-5">
            <stop stop-color="#033CAE" offset="0%"></stop>
            <stop stop-color="#00339A" offset="100%"></stop>
        </linearGradient>
        <linearGradient x1="50%" y1="0%" x2="50%" y2="100%" id="linearGradient-6">
            <stop stop-color="#FFD428" offset="0%"></stop>
            <stop stop-color="#FFCC00" offset="100%"></stop>
        </linearGradient>
        <path d="M10.5,3 L9.79289322,3.20710678 L10,2.5 L9.79289322,1.79289322 L10.5,2 L11.2071068,1.79289322 L11,2.5 L11.2071068,3.20710678 L10.5,3 Z M10.5,13 L9.79289322,13.2071068 L10,12.5 L9.79289322,11.7928932 L10.5,12 L11.2071068,11.7928932 L11,12.5 L11.2071068,13.2071068 L10.5,13 Z M15.5,8 L14.7928932,8.20710678 L15,7.5 L14.7928932,6.79289322 L15.5,7 L16.2071068,6.79289322 L16,7.5 L16.2071068,8.20710678 L15.5,8 Z M5.5,8 L4.79289322,8.20710678 L5,7.5 L4.79289322,6.79289322 L5.5,7 L6.20710678,6.79289322 L6,7.5 L6.20710678,8.20710678 L5.5,8 Z M14.830127,5.5 L14.1230202,5.70710678 L14.330127,5 L14.1230202,4.29289322 L14.830127,4.5 L15.5372338,4.29289322 L15.330127,5 L15.5372338,5.70710678 L14.830127,5.5 Z M6.16987298,10.5 L5.4627662,10.7071068 L5.66987298,10 L5.4627662,9.29289322 L6.16987298,9.5 L6.87697976,9.29289322 L6.66987298,10 L6.87697976,10.7071068 L6.16987298,10.5 Z M13,3.66987298 L12.2928932,3.87697976 L12.5,3.16987298 L12.2928932,2.4627662 L13,2.66987298 L13.7071068,2.4627662 L13.5,3.16987298 L13.7071068,3.87697976 L13,3.66987298 Z M8,12.330127 L7.29289322,12.5372338 L7.5,11.830127 L7.29289322,11.1230202 L8,11.330127 L8.70710678,11.1230202 L8.5,11.830127 L8.70710678,12.5372338 L8,12.330127 Z M14.830127,10.5 L14.1230202,10.7071068 L14.330127,10 L14.1230202,9.29289322 L14.830127,9.5 L15.5372338,9.29289322 L15.330127,10 L15.5372338,10.7071068 L14.830127,10.5 Z M6.16987298,5.5 L5.4627662,5.70710678 L5.66987298,5 L5.4627662,4.29289322 L6.16987298,4.5 L6.87697976,4.29289322 L6.66987298,5 L6.87697976,5.70710678 L6.16987298,5.5 Z M13,12.330127 L12.2928932,12.5372338 L12.5,11.830127 L12.2928932,11.1230202 L13,11.330127 L13.7071068,11.1230202 L13.5,11.830127 L13.7071068,12.5372338 L13,12.330127 Z M8,3.66987298 L7.29289322,3.87697976 L7.5,3.16987298 L7.29289322,2.4627662 L8,2.66987298 L8.70710678,2.4627662 L8.5,3.16987298 L8.70710678,3.87697976 L8,3.66987298 Z" id="path-7"></path>
        <filter x="-50%" y="-50%" width="200%" height="200%" filterUnits="objectBoundingBox" id="filter-8">
            <feOffset dx="0" dy="0.5" in="SourceAlpha" result="shadowOffsetOuter1"></feOffset>
            <feColorMatrix values="0 0 0 0 0   0 0 0 0 0   0 0 0 0 0  0 0 0 0.06 0" type="matrix" in="shadowOffsetOuter1"></feColorMatrix>
        </filter>
    </defs>
    <g id="Flag-Kit" stroke="none" stroke-width="1" fill="none" fill-rule="evenodd">
        <g id="EU">
            <g id="BE-Copy-9" transform="translate(1.000000, 1.000000)">
                <mask id="mask-3" fill="white">
                    <use xlink:href="#path-2"></use>
                </mask>
                <g id="Mask">
                    <use fill="black" fill-opacity="1" filter="url(#filter-4)" xlink:href="#path-2"></use>
                    <use fill="url(#linearGradient-1)" fill-rule="evenodd" xlink:href="#path-2"></use>
                </g>
                <rect id="Mask-Copy" fill="url(#linearGradient-5)" mask="url(#mask-3)" x="0" y="0" width="21" height="15"></rect>
                <g id="Star-2" mask="url(#mask-3)">
                    <use fill="black" fill-opacity="1" filter="url(#filter-8)" xlink:href="#path-7"></use>
                    <use fill="url(#linearGradient-6)" fill-rule="evenodd" xlink:href="#path-7"></use>
                </g>
                <rect id="Depth" mask="url(#mask-3)" x="0" y="0" width="21" height="15" rx="1.5"></rect>
            </g>
        </g>
    </g>
</svg>