<?xml version="1.0" encoding="UTF-8" standalone="no"?>
<svg width="23px" height="17px" viewBox="0 0 23 17" version="1.1" xmlns="http://www.w3.org/2000/svg" xmlns:xlink="http://www.w3.org/1999/xlink">
    <!-- Generator: Sketch 3.7.2 (28276) - http://www.bohemiancoding.com/sketch -->
    <title>GE</title>
    <desc>Created with Sketch.</desc>
    <defs>
        <linearGradient x1="50%" y1="0%" x2="50%" y2="100%" id="linearGradient-1">
            <stop stop-color="#FFFFFF" offset="0%"></stop>
            <stop stop-color="#F0F0F0" offset="100%"></stop>
        </linearGradient>
        <rect id="path-2" x="0" y="0" width="21" height="15" rx="1.5"></rect>
        <filter x="-50%" y="-50%" width="200%" height="200%" filterUnits="objectBoundingBox" id="filter-4">
            <feOffset dx="0" dy="0.5" in="SourceAlpha" result="shadowOffsetOuter1"></feOffset>
            <feGaussianBlur stdDeviation="0.5" in="shadowOffsetOuter1" result="shadowBlurOuter1"></feGaussianBlur>
            <feColorMatrix values="0 0 0 0 0   0 0 0 0 0   0 0 0 0 0  0 0 0 0.16 0" type="matrix" in="shadowBlurOuter1"></feColorMatrix>
        </filter>
        <linearGradient x1="50%" y1="0%" x2="50%" y2="100%" id="linearGradient-5">
            <stop stop-color="#FF2A37" offset="0%"></stop>
            <stop stop-color="#FD0D1B" offset="100%"></stop>
        </linearGradient>
        <path d="M9,9 L-1,9 L-1,6 L9,6 L9,-1 L12,-1 L12,6 L22,6 L22,9 L12,9 L12,16 L9,16 L9,9 Z" id="path-6"></path>
        <filter x="-50%" y="-50%" width="200%" height="200%" filterUnits="objectBoundingBox" id="filter-7">
            <feMorphology radius="0.5" operator="erode" in="SourceAlpha" result="shadowSpreadInner1"></feMorphology>
            <feOffset dx="0" dy="0" in="shadowSpreadInner1" result="shadowOffsetInner1"></feOffset>
            <feComposite in="shadowOffsetInner1" in2="SourceAlpha" operator="arithmetic" k2="-1" k3="1" result="shadowInnerInner1"></feComposite>
            <feColorMatrix values="0 0 0 0 0   0 0 0 0 0   0 0 0 0 0  0 0 0 0.06 0" type="matrix" in="shadowInnerInner1"></feColorMatrix>
        </filter>
    </defs>
    <g id="Flag-Kit" stroke="none" stroke-width="1" fill="none" fill-rule="evenodd">
        <g id="GE">
            <g id="AE-Copy-4" transform="translate(1.000000, 1.000000)">
                <mask id="mask-3" fill="white">
                    <use xlink:href="#path-2"></use>
                </mask>
                <g id="Mask">
                    <use fill="black" fill-opacity="1" filter="url(#filter-4)" xlink:href="#path-2"></use>
                    <use fill="url(#linearGradient-1)" fill-rule="evenodd" xlink:href="#path-2"></use>
                </g>
                <g id="Rectangle-2" mask="url(#mask-3)">
                    <use fill="url(#linearGradient-5)" fill-rule="evenodd" xlink:href="#path-6"></use>
                    <use fill="black" fill-opacity="1" filter="url(#filter-7)" xlink:href="#path-6"></use>
                </g>
                <path d="M16.2,2.7 L16,1.5 L17,1.5 L16.8,2.7 L18,2.5 L18,3.5 L16.8,3.3 L17,4.5 L16,4.5 L16.2,3.3 L15,3.5 L15,2.5 L16.2,2.7 Z" id="Rectangle-742" fill="#FD0D1B" mask="url(#mask-3)"></path>
                <path d="M4.2,2.7 L4,1.5 L5,1.5 L4.8,2.7 L6,2.5 L6,3.5 L4.8,3.3 L5,4.5 L4,4.5 L4.2,3.3 L3,3.5 L3,2.5 L4.2,2.7 Z" id="Rectangle-742" fill="#FD0D1B" mask="url(#mask-3)"></path>
                <path d="M4.2,11.7 L4,10.5 L5,10.5 L4.8,11.7 L6,11.5 L6,12.5 L4.8,12.3 L5,13.5 L4,13.5 L4.2,12.3 L3,12.5 L3,11.5 L4.2,11.7 Z" id="Rectangle-742" fill="#FD0D1B" mask="url(#mask-3)"></path>
                <path d="M16.2,11.7 L16,10.5 L17,10.5 L16.8,11.7 L18,11.5 L18,12.5 L16.8,12.3 L17,13.5 L16,13.5 L16.2,12.3 L15,12.5 L15,11.5 L16.2,11.7 Z" id="Rectangle-742" fill="#FD0D1B" mask="url(#mask-3)"></path>
                <rect id="Depth" mask="url(#mask-3)" x="0" y="0" width="21" height="15" rx="1.5"></rect>
            </g>
        </g>
    </g>
</svg>