<?xml version="1.0" encoding="UTF-8" standalone="no"?>
<svg width="23px" height="17px" viewBox="0 0 23 17" version="1.1" xmlns="http://www.w3.org/2000/svg" xmlns:xlink="http://www.w3.org/1999/xlink">
    <!-- Generator: Sketch 3.7.2 (28276) - http://www.bohemiancoding.com/sketch -->
    <title>SG</title>
    <desc>Created with Sketch.</desc>
    <defs>
        <linearGradient x1="50%" y1="0%" x2="50%" y2="100%" id="linearGradient-1">
            <stop stop-color="#FFFFFF" offset="0%"></stop>
            <stop stop-color="#F0F0F0" offset="100%"></stop>
        </linearGradient>
        <filter x="-50%" y="-50%" width="200%" height="200%" filterUnits="objectBoundingBox" id="filter-2">
            <feMorphology radius="0.25" operator="dilate" in="SourceAlpha" result="shadowSpreadOuter1"></feMorphology>
            <feOffset dx="0" dy="0" in="shadowSpreadOuter1" result="shadowOffsetOuter1"></feOffset>
            <feColorMatrix values="0 0 0 0 0   0 0 0 0 0   0 0 0 0 0  0 0 0 0.06 0" type="matrix" in="shadowOffsetOuter1" result="shadowMatrixOuter1"></feColorMatrix>
            <feMerge>
                <feMergeNode in="shadowMatrixOuter1"></feMergeNode>
                <feMergeNode in="SourceGraphic"></feMergeNode>
            </feMerge>
        </filter>
        <rect id="path-3" x="0" y="0" width="21" height="15" rx="1.5"></rect>
        <filter x="-50%" y="-50%" width="200%" height="200%" filterUnits="objectBoundingBox" id="filter-5">
            <feOffset dx="0" dy="0.5" in="SourceAlpha" result="shadowOffsetOuter1"></feOffset>
            <feGaussianBlur stdDeviation="0.5" in="shadowOffsetOuter1" result="shadowBlurOuter1"></feGaussianBlur>
            <feColorMatrix values="0 0 0 0 0   0 0 0 0 0   0 0 0 0 0  0 0 0 0.16 0" type="matrix" in="shadowBlurOuter1"></feColorMatrix>
        </filter>
        <linearGradient x1="50%" y1="0%" x2="50%" y2="100%" id="linearGradient-6">
            <stop stop-color="#E12137" offset="0%"></stop>
            <stop stop-color="#CE1126" offset="100%"></stop>
        </linearGradient>
        <rect id="path-7" x="0" y="0" width="21" height="8"></rect>
        <filter x="-50%" y="-50%" width="200%" height="200%" filterUnits="objectBoundingBox" id="filter-8">
            <feMorphology radius="0.25" operator="dilate" in="SourceAlpha" result="shadowSpreadOuter1"></feMorphology>
            <feOffset dx="0" dy="0" in="shadowSpreadOuter1" result="shadowOffsetOuter1"></feOffset>
            <feColorMatrix values="0 0 0 0 0   0 0 0 0 0   0 0 0 0 0  0 0 0 0.06 0" type="matrix" in="shadowOffsetOuter1"></feColorMatrix>
        </filter>
        <rect id="path-9" x="0" y="8" width="21" height="7"></rect>
        <filter x="-50%" y="-50%" width="200%" height="200%" filterUnits="objectBoundingBox" id="filter-10">
            <feMorphology radius="0.25" operator="dilate" in="SourceAlpha" result="shadowSpreadOuter1"></feMorphology>
            <feOffset dx="0" dy="0" in="shadowSpreadOuter1" result="shadowOffsetOuter1"></feOffset>
            <feColorMatrix values="0 0 0 0 0   0 0 0 0 0   0 0 0 0 0  0 0 0 0.06 0" type="matrix" in="shadowOffsetOuter1"></feColorMatrix>
        </filter>
        <path d="M6.87363497,6.3431077 C6.36024587,6.75416668 5.70883166,7 5,7 C3.34314575,7 2,5.65685425 2,4 C2,2.34314575 3.34314575,1 5,1 C5.70883166,1 6.36024587,1.24583332 6.87363497,1.6568923 C6.60168078,1.55545057 6.30731598,1.5 6,1.5 C4.61928813,1.5 3.5,2.61928813 3.5,4 C3.5,5.38071187 4.61928813,6.5 6,6.5 C6.30731598,6.5 6.60168078,6.44454943 6.87363497,6.3431077 Z M5.5,4 C5.77614237,4 6,3.77614237 6,3.5 C6,3.22385763 5.77614237,3 5.5,3 C5.22385763,3 5,3.22385763 5,3.5 C5,3.77614237 5.22385763,4 5.5,4 Z M6.5,6 C6.77614237,6 7,5.77614237 7,5.5 C7,5.22385763 6.77614237,5 6.5,5 C6.22385763,5 6,5.22385763 6,5.5 C6,5.77614237 6.22385763,6 6.5,6 Z M8.5,6 C8.77614237,6 9,5.77614237 9,5.5 C9,5.22385763 8.77614237,5 8.5,5 C8.22385763,5 8,5.22385763 8,5.5 C8,5.77614237 8.22385763,6 8.5,6 Z M9.5,4 C9.77614237,4 10,3.77614237 10,3.5 C10,3.22385763 9.77614237,3 9.5,3 C9.22385763,3 9,3.22385763 9,3.5 C9,3.77614237 9.22385763,4 9.5,4 Z M7.5,2.5 C7.77614237,2.5 8,2.27614237 8,2 C8,1.72385763 7.77614237,1.5 7.5,1.5 C7.22385763,1.5 7,1.72385763 7,2 C7,2.27614237 7.22385763,2.5 7.5,2.5 Z" id="path-11"></path>
        <filter x="-50%" y="-50%" width="200%" height="200%" filterUnits="objectBoundingBox" id="filter-12">
            <feOffset dx="0" dy="0.5" in="SourceAlpha" result="shadowOffsetOuter1"></feOffset>
            <feColorMatrix values="0 0 0 0 0   0 0 0 0 0   0 0 0 0 0  0 0 0 0.06 0" type="matrix" in="shadowOffsetOuter1"></feColorMatrix>
        </filter>
    </defs>
    <g id="Flag-Kit" stroke="none" stroke-width="1" fill="none" fill-rule="evenodd">
        <g id="SG">
            <g id="BF-Copy-5" filter="url(#filter-2)" transform="translate(1.000000, 1.000000)">
                <mask id="mask-4" fill="white">
                    <use xlink:href="#path-3"></use>
                </mask>
                <g id="Mask">
                    <use fill="black" fill-opacity="1" filter="url(#filter-5)" xlink:href="#path-3"></use>
                    <use fill="url(#linearGradient-1)" fill-rule="evenodd" xlink:href="#path-3"></use>
                </g>
                <g id="Rectangle-2" mask="url(#mask-4)">
                    <use fill="black" fill-opacity="1" filter="url(#filter-8)" xlink:href="#path-7"></use>
                    <use fill="url(#linearGradient-6)" fill-rule="evenodd" xlink:href="#path-7"></use>
                </g>
                <g id="Rectangle-2" mask="url(#mask-4)">
                    <use fill="black" fill-opacity="1" filter="url(#filter-10)" xlink:href="#path-9"></use>
                    <use fill="url(#linearGradient-1)" fill-rule="evenodd" xlink:href="#path-9"></use>
                </g>
                <g id="Oval-12" mask="url(#mask-4)">
                    <use fill="black" fill-opacity="1" filter="url(#filter-12)" xlink:href="#path-11"></use>
                    <use fill="url(#linearGradient-1)" fill-rule="evenodd" xlink:href="#path-11"></use>
                </g>
                <rect id="Depth" mask="url(#mask-4)" x="0" y="0" width="21" height="15" rx="1.5"></rect>
            </g>
        </g>
    </g>
</svg>