<?xml version="1.0" encoding="UTF-8" standalone="no"?>
<svg width="23px" height="17px" viewBox="0 0 23 17" version="1.1" xmlns="http://www.w3.org/2000/svg" xmlns:xlink="http://www.w3.org/1999/xlink">
    <!-- Generator: Sketch 3.7.2 (28276) - http://www.bohemiancoding.com/sketch -->
    <title>TM</title>
    <desc>Created with Sketch.</desc>
    <defs>
        <linearGradient x1="50%" y1="0%" x2="50%" y2="100%" id="linearGradient-1">
            <stop stop-color="#FFFFFF" offset="0%"></stop>
            <stop stop-color="#F0F0F0" offset="100%"></stop>
        </linearGradient>
        <rect id="path-2" x="0" y="0" width="21" height="15" rx="1.5"></rect>
        <filter x="-50%" y="-50%" width="200%" height="200%" filterUnits="objectBoundingBox" id="filter-4">
            <feOffset dx="0" dy="0.5" in="SourceAlpha" result="shadowOffsetOuter1"></feOffset>
            <feGaussianBlur stdDeviation="0.5" in="shadowOffsetOuter1" result="shadowBlurOuter1"></feGaussianBlur>
            <feColorMatrix values="0 0 0 0 0   0 0 0 0 0   0 0 0 0 0  0 0 0 0.16 0" type="matrix" in="shadowBlurOuter1"></feColorMatrix>
        </filter>
        <linearGradient x1="50%" y1="0%" x2="50%" y2="100%" id="linearGradient-5">
            <stop stop-color="#30C375" offset="0%"></stop>
            <stop stop-color="#28AE67" offset="100%"></stop>
        </linearGradient>
        <linearGradient x1="50%" y1="0%" x2="50%" y2="100%" id="linearGradient-6">
            <stop stop-color="#DE404F" offset="0%"></stop>
            <stop stop-color="#CA3745" offset="100%"></stop>
        </linearGradient>
        <ellipse id="path-7" cx="1.5" cy="1" rx="1.5" ry="1"></ellipse>
        <ellipse id="path-9" cx="1.5" cy="1" rx="1.5" ry="1"></ellipse>
        <ellipse id="path-11" cx="1.5" cy="1" rx="1.5" ry="1"></ellipse>
        <ellipse id="path-13" cx="1.5" cy="0.5" rx="1.5" ry="0.5"></ellipse>
        <ellipse id="path-15" cx="1.5" cy="1" rx="1.5" ry="1"></ellipse>
        <path d="M11.1169894,3.17861784 C10.9394885,3.39015517 10.9670805,3.70553297 11.1786178,3.88303386 C11.3901552,4.06053476 11.705533,4.03294278 11.8830339,3.82140545 C12.0605348,3.60986811 12.0329428,3.29449032 11.8214054,3.11698942 C11.6098681,2.93948852 11.2944903,2.9670805 11.1169894,3.17861784 Z M9.82140545,5.11698942 C9.60986811,4.93948852 9.29449032,4.9670805 9.11698942,5.17861784 C8.93948852,5.39015517 8.9670805,5.70553297 9.17861784,5.88303386 C9.39015517,6.06053476 9.70553297,6.03294278 9.88303386,5.82140545 C10.0605348,5.60986811 10.0329428,5.29449032 9.82140545,5.11698942 L9.82140545,5.11698942 Z M8.82140545,4.11698942 C8.60986811,3.93948852 8.29449032,3.9670805 8.11698942,4.17861784 C7.93948852,4.39015517 7.9670805,4.70553297 8.17861784,4.88303386 C8.39015517,5.06053476 8.70553297,5.03294278 8.88303386,4.82140545 C9.06053476,4.60986811 9.03294278,4.29449032 8.82140545,4.11698942 L8.82140545,4.11698942 Z M10.8214054,2.11698942 C10.6098681,1.93948852 10.2944903,1.9670805 10.1169894,2.17861784 C9.93948852,2.39015517 9.9670805,2.70553297 10.1786178,2.88303386 C10.3901552,3.06053476 10.705533,3.03294278 10.8830339,2.82140545 C11.0605348,2.60986811 11.0329428,2.29449032 10.8214054,2.11698942 L10.8214054,2.11698942 Z M10.3214054,3.61698942 C10.1098681,3.43948852 9.79449032,3.4670805 9.61698942,3.67861784 C9.43948852,3.89015517 9.4670805,4.20553297 9.67861784,4.38303386 C9.89015517,4.56053476 10.205533,4.53294278 10.3830339,4.32140545 C10.5605348,4.10986811 10.5329428,3.79449032 10.3214054,3.61698942 L10.3214054,3.61698942 Z" id="path-17"></path>
        <filter x="-50%" y="-50%" width="200%" height="200%" filterUnits="objectBoundingBox" id="filter-18">
            <feOffset dx="0" dy="0.5" in="SourceAlpha" result="shadowOffsetOuter1"></feOffset>
            <feColorMatrix values="0 0 0 0 0   0 0 0 0 0   0 0 0 0 0  0 0 0 0.06 0" type="matrix" in="shadowOffsetOuter1"></feColorMatrix>
        </filter>
        <path d="M13.1070726,7.0878904 C11.9160354,8.27892761 9.98498252,8.27892761 8.79394531,7.0878904 C8.67853723,6.97248232 8.57431185,6.85012618 8.48126919,6.72216849 C9.6738634,7.58934686 11.3530454,7.48512149 12.4286745,6.40949237 C13.5043037,5.33386325 13.608529,3.65468123 12.7413507,2.46208702 C12.8693083,2.55512969 12.9916645,2.65935506 13.1070726,2.77476315 C14.2981098,3.96580035 14.2981098,5.8968532 13.1070726,7.0878904 Z" id="path-19"></path>
        <filter x="-50%" y="-50%" width="200%" height="200%" filterUnits="objectBoundingBox" id="filter-20">
            <feOffset dx="0" dy="0.5" in="SourceAlpha" result="shadowOffsetOuter1"></feOffset>
            <feColorMatrix values="0 0 0 0 0   0 0 0 0 0   0 0 0 0 0  0 0 0 0.06 0" type="matrix" in="shadowOffsetOuter1"></feColorMatrix>
        </filter>
    </defs>
    <g id="Flag-Kit" stroke="none" stroke-width="1" fill="none" fill-rule="evenodd">
        <g id="TM">
            <g id="AE-Copy-4" transform="translate(1.000000, 1.000000)">
                <mask id="mask-3" fill="white">
                    <use xlink:href="#path-2"></use>
                </mask>
                <g id="Mask">
                    <use fill="black" fill-opacity="1" filter="url(#filter-4)" xlink:href="#path-2"></use>
                    <use fill="url(#linearGradient-1)" fill-rule="evenodd" xlink:href="#path-2"></use>
                </g>
                <rect id="Rectangle-2" fill="url(#linearGradient-5)" mask="url(#mask-3)" x="0" y="0" width="21" height="15"></rect>
                <rect id="Rectangle-1092" fill="url(#linearGradient-6)" mask="url(#mask-3)" x="3" y="0" width="3" height="15"></rect>
                <g id="Oval-161" mask="url(#mask-3)">
                    <g transform="translate(3.000000, 1.000000)">
                        <mask id="mask-8" fill="white">
                            <use xlink:href="#path-7"></use>
                        </mask>
                        <use id="Mask" stroke="none" fill="#FFFFFF" fill-rule="evenodd" xlink:href="#path-7"></use>
                        <circle id="Oval-166" stroke="none" fill="#DD404F" fill-rule="evenodd" mask="url(#mask-8)" cx="1.5" cy="1" r="0.5"></circle>
                        <rect id="Rectangle-1093" stroke="none" fill="#FBAF29" fill-rule="evenodd" mask="url(#mask-8)" x="0" y="0" width="1.5" height="1"></rect>
                        <rect id="Rectangle-1093-Copy" stroke="none" fill="#FBAF29" fill-rule="evenodd" mask="url(#mask-8)" x="1.5" y="1" width="1.5" height="1"></rect>
                    </g>
                </g>
                <g id="Oval-161-Copy-2" mask="url(#mask-3)">
                    <g transform="translate(3.000000, 12.000000)">
                        <mask id="mask-10" fill="white">
                            <use xlink:href="#path-9"></use>
                        </mask>
                        <use id="Mask" stroke="none" fill="#FFFFFF" fill-rule="evenodd" xlink:href="#path-9"></use>
                        <circle id="Oval-166" stroke="none" fill="#DD404F" fill-rule="evenodd" mask="url(#mask-10)" cx="1.5" cy="1" r="0.5"></circle>
                        <rect id="Rectangle-1093" stroke="none" fill="#FBAF29" fill-rule="evenodd" mask="url(#mask-10)" x="0" y="0" width="1.5" height="1"></rect>
                        <rect id="Rectangle-1093-Copy" stroke="none" fill="#FBAF29" fill-rule="evenodd" mask="url(#mask-10)" x="1.5" y="1" width="1.5" height="1"></rect>
                    </g>
                </g>
                <g id="Oval-161-Copy-3" mask="url(#mask-3)">
                    <g transform="translate(3.000000, 7.000000)">
                        <mask id="mask-12" fill="white">
                            <use xlink:href="#path-11"></use>
                        </mask>
                        <use id="Mask" stroke="none" fill="#28AE67" fill-rule="evenodd" xlink:href="#path-11"></use>
                        <ellipse id="Oval-166" stroke="none" fill="#DD404F" fill-rule="evenodd" mask="url(#mask-12)" cx="1.5" cy="1" rx="1" ry="0.5"></ellipse>
                    </g>
                </g>
                <g id="Oval-161-Copy-4" mask="url(#mask-3)">
                    <g transform="translate(3.000000, 10.000000)">
                        <mask id="mask-14" fill="white">
                            <use xlink:href="#path-13"></use>
                        </mask>
                        <use id="Mask" stroke="none" fill="#28AE67" fill-rule="evenodd" xlink:href="#path-13"></use>
                    </g>
                </g>
                <g id="Oval-161-Copy" mask="url(#mask-3)">
                    <g transform="translate(3.000000, 4.000000)">
                        <mask id="mask-16" fill="white">
                            <use xlink:href="#path-15"></use>
                        </mask>
                        <use id="Mask" stroke="none" fill="#FBAF29" fill-rule="evenodd" xlink:href="#path-15"></use>
                        <circle id="Oval-166" stroke="none" fill="#DD404F" fill-rule="evenodd" mask="url(#mask-16)" cx="1.5" cy="1" r="0.5"></circle>
                        <rect id="Rectangle-1093" stroke="none" fill="#28AE67" fill-rule="evenodd" mask="url(#mask-16)" x="0" y="0" width="1" height="2"></rect>
                        <rect id="Rectangle-1093-Copy-2" stroke="none" fill="#28AE67" fill-rule="evenodd" mask="url(#mask-16)" x="2" y="0" width="1" height="2"></rect>
                    </g>
                </g>
                <g id="Oval-68" mask="url(#mask-3)">
                    <use fill="black" fill-opacity="1" filter="url(#filter-18)" xlink:href="#path-17"></use>
                    <use fill="url(#linearGradient-1)" fill-rule="evenodd" xlink:href="#path-17"></use>
                </g>
                <g id="Star-8" mask="url(#mask-3)">
                    <use fill="black" fill-opacity="1" filter="url(#filter-20)" xlink:href="#path-19"></use>
                    <use fill="url(#linearGradient-1)" fill-rule="evenodd" xlink:href="#path-19"></use>
                </g>
                <rect id="Depth" mask="url(#mask-3)" x="0" y="0" width="21" height="15" rx="1.5"></rect>
            </g>
        </g>
    </g>
</svg>