<?xml version="1.0" encoding="UTF-8" standalone="no"?>
<svg width="23px" height="17px" viewBox="0 0 23 17" version="1.1" xmlns="http://www.w3.org/2000/svg" xmlns:xlink="http://www.w3.org/1999/xlink">
    <!-- Generator: Sketch 3.7.2 (28276) - http://www.bohemiancoding.com/sketch -->
    <title>US</title>
    <desc>Created with Sketch.</desc>
    <defs>
        <linearGradient x1="50%" y1="0%" x2="50%" y2="100%" id="linearGradient-1">
            <stop stop-color="#FFFFFF" offset="0%"></stop>
            <stop stop-color="#F0F0F0" offset="100%"></stop>
        </linearGradient>
        <rect id="path-2" x="0" y="0" width="21" height="15" rx="1.5"></rect>
        <filter x="-50%" y="-50%" width="200%" height="200%" filterUnits="objectBoundingBox" id="filter-4">
            <feOffset dx="0" dy="0.5" in="SourceAlpha" result="shadowOffsetOuter1"></feOffset>
            <feGaussianBlur stdDeviation="0.5" in="shadowOffsetOuter1" result="shadowBlurOuter1"></feGaussianBlur>
            <feColorMatrix values="0 0 0 0 0   0 0 0 0 0   0 0 0 0 0  0 0 0 0.16 0" type="matrix" in="shadowBlurOuter1"></feColorMatrix>
        </filter>
        <linearGradient x1="50%" y1="0%" x2="50%" y2="100%" id="linearGradient-5">
            <stop stop-color="#D02F44" offset="0%"></stop>
            <stop stop-color="#B12537" offset="100%"></stop>
        </linearGradient>
        <linearGradient x1="50%" y1="0%" x2="50%" y2="100%" id="linearGradient-6">
            <stop stop-color="#46467F" offset="0%"></stop>
            <stop stop-color="#3C3C6D" offset="100%"></stop>
        </linearGradient>
        <path d="M1.5,2 C1.77614237,2 2,1.77614237 2,1.5 C2,1.22385763 1.77614237,1 1.5,1 C1.22385763,1 1,1.22385763 1,1.5 C1,1.77614237 1.22385763,2 1.5,2 Z M3.5,2 C3.77614237,2 4,1.77614237 4,1.5 C4,1.22385763 3.77614237,1 3.5,1 C3.22385763,1 3,1.22385763 3,1.5 C3,1.77614237 3.22385763,2 3.5,2 Z M5.5,2 C5.77614237,2 6,1.77614237 6,1.5 C6,1.22385763 5.77614237,1 5.5,1 C5.22385763,1 5,1.22385763 5,1.5 C5,1.77614237 5.22385763,2 5.5,2 Z M7.5,2 C7.77614237,2 8,1.77614237 8,1.5 C8,1.22385763 7.77614237,1 7.5,1 C7.22385763,1 7,1.22385763 7,1.5 C7,1.77614237 7.22385763,2 7.5,2 Z M2.5,3 C2.77614237,3 3,2.77614237 3,2.5 C3,2.22385763 2.77614237,2 2.5,2 C2.22385763,2 2,2.22385763 2,2.5 C2,2.77614237 2.22385763,3 2.5,3 Z M4.5,3 C4.77614237,3 5,2.77614237 5,2.5 C5,2.22385763 4.77614237,2 4.5,2 C4.22385763,2 4,2.22385763 4,2.5 C4,2.77614237 4.22385763,3 4.5,3 Z M6.5,3 C6.77614237,3 7,2.77614237 7,2.5 C7,2.22385763 6.77614237,2 6.5,2 C6.22385763,2 6,2.22385763 6,2.5 C6,2.77614237 6.22385763,3 6.5,3 Z M7.5,4 C7.77614237,4 8,3.77614237 8,3.5 C8,3.22385763 7.77614237,3 7.5,3 C7.22385763,3 7,3.22385763 7,3.5 C7,3.77614237 7.22385763,4 7.5,4 Z M5.5,4 C5.77614237,4 6,3.77614237 6,3.5 C6,3.22385763 5.77614237,3 5.5,3 C5.22385763,3 5,3.22385763 5,3.5 C5,3.77614237 5.22385763,4 5.5,4 Z M3.5,4 C3.77614237,4 4,3.77614237 4,3.5 C4,3.22385763 3.77614237,3 3.5,3 C3.22385763,3 3,3.22385763 3,3.5 C3,3.77614237 3.22385763,4 3.5,4 Z M1.5,4 C1.77614237,4 2,3.77614237 2,3.5 C2,3.22385763 1.77614237,3 1.5,3 C1.22385763,3 1,3.22385763 1,3.5 C1,3.77614237 1.22385763,4 1.5,4 Z M2.5,5 C2.77614237,5 3,4.77614237 3,4.5 C3,4.22385763 2.77614237,4 2.5,4 C2.22385763,4 2,4.22385763 2,4.5 C2,4.77614237 2.22385763,5 2.5,5 Z M4.5,5 C4.77614237,5 5,4.77614237 5,4.5 C5,4.22385763 4.77614237,4 4.5,4 C4.22385763,4 4,4.22385763 4,4.5 C4,4.77614237 4.22385763,5 4.5,5 Z M6.5,5 C6.77614237,5 7,4.77614237 7,4.5 C7,4.22385763 6.77614237,4 6.5,4 C6.22385763,4 6,4.22385763 6,4.5 C6,4.77614237 6.22385763,5 6.5,5 Z M7.5,6 C7.77614237,6 8,5.77614237 8,5.5 C8,5.22385763 7.77614237,5 7.5,5 C7.22385763,5 7,5.22385763 7,5.5 C7,5.77614237 7.22385763,6 7.5,6 Z M5.5,6 C5.77614237,6 6,5.77614237 6,5.5 C6,5.22385763 5.77614237,5 5.5,5 C5.22385763,5 5,5.22385763 5,5.5 C5,5.77614237 5.22385763,6 5.5,6 Z M3.5,6 C3.77614237,6 4,5.77614237 4,5.5 C4,5.22385763 3.77614237,5 3.5,5 C3.22385763,5 3,5.22385763 3,5.5 C3,5.77614237 3.22385763,6 3.5,6 Z M1.5,6 C1.77614237,6 2,5.77614237 2,5.5 C2,5.22385763 1.77614237,5 1.5,5 C1.22385763,5 1,5.22385763 1,5.5 C1,5.77614237 1.22385763,6 1.5,6 Z" id="path-7"></path>
        <filter x="-50%" y="-50%" width="200%" height="200%" filterUnits="objectBoundingBox" id="filter-8">
            <feOffset dx="0" dy="0.5" in="SourceAlpha" result="shadowOffsetOuter1"></feOffset>
            <feColorMatrix values="0 0 0 0 0   0 0 0 0 0   0 0 0 0 0  0 0 0 0.06 0" type="matrix" in="shadowOffsetOuter1"></feColorMatrix>
        </filter>
        <rect id="path-9" x="0" y="0" width="21" height="15" rx="1.5"></rect>
    </defs>
    <g id="Flag-Kit" stroke="none" stroke-width="1" fill="none" fill-rule="evenodd">
        <g id="US">
            <g id="Rectangle-1-Copy-3" transform="translate(1.000000, 1.000000)">
                <mask id="mask-3" fill="white">
                    <use xlink:href="#path-2"></use>
                </mask>
                <g id="Mask">
                    <use fill="black" fill-opacity="1" filter="url(#filter-4)" xlink:href="#path-2"></use>
                    <use fill="url(#linearGradient-1)" fill-rule="evenodd" xlink:href="#path-2"></use>
                </g>
                <path d="M0,0 L21,0 L21,1 L0,1 L0,0 Z M0,2 L21,2 L21,3 L0,3 L0,2 Z M0,4 L21,4 L21,5 L0,5 L0,4 Z M0,6 L21,6 L21,7 L0,7 L0,6 Z M0,8 L21,8 L21,9 L0,9 L0,8 Z M0,10 L21,10 L21,11 L0,11 L0,10 Z M0,12 L21,12 L21,13 L0,13 L0,12 Z M0,14 L21,14 L21,15 L0,15 L0,14 Z" id="Rectangle-511" fill="url(#linearGradient-5)" mask="url(#mask-3)"></path>
                <rect id="Rectangle-511" fill="url(#linearGradient-6)" mask="url(#mask-3)" x="0" y="0" width="9" height="7"></rect>
                <g id="Oval-43" mask="url(#mask-3)">
                    <use fill="black" fill-opacity="1" filter="url(#filter-8)" xlink:href="#path-7"></use>
                    <use fill="url(#linearGradient-1)" fill-rule="evenodd" xlink:href="#path-7"></use>
                </g>
                <mask id="mask-10" fill="white">
                    <use xlink:href="#path-9"></use>
                </mask>
                <g id="Depth"></g>
            </g>
        </g>
    </g>
</svg>